<svg width="100" height="100" viewBox="0 0 100 100" fill="none" xmlns="http://www.w3.org/2000/svg">
<g id="triangles">
<path id="darkPolygon" opacity="0.7" d="M34.6344 57.394C33.2901 58.1964 31.5867 57.213 31.6095 55.6476L31.8828 36.8728C31.905 35.3462 33.5604 34.4065 34.8826 35.1698L50.7322 44.3206C52.0543 45.0839 52.0682 46.9874 50.7573 47.7699L34.6344 57.394Z" fill="#031AE3"/>
<g id="light">
<path id="lightPolygon2" opacity="0.7" d="M21.6344 57.394C20.2901 58.1964 18.5867 57.213 18.6095 55.6476L18.8828 36.8728C18.905 35.3462 20.5604 34.4065 21.8826 35.1698L37.7322 44.3206C39.0543 45.0839 39.0682 46.9874 37.7573 47.7699L21.6344 57.394Z" fill="#FF0000"/>
<path id="lightPolygon1" opacity="0.7" d="M21.6344 57.394C20.2901 58.1965 18.5867 57.213 18.6095 55.6476L18.8828 36.8728C18.905 35.3463 20.5604 34.4065 21.8826 35.1698L37.7322 44.3206C39.0543 45.0839 39.0682 46.9875 37.7573 47.77L21.6344 57.394Z" fill="#34F526"/>
</g>
</g>
</svg>
